<svg width="51" height="51" viewBox="0 0 51 51" fill="none" xmlns="http://www.w3.org/2000/svg">
<rect width="51" height="51" rx="25.5" fill="white"/>
<path d="M36.2675 14.7229C34.3369 13.8097 32.2666 13.1369 30.1019 12.7516C30.0625 12.7442 30.0231 12.7628 30.0028 12.7999C29.7366 13.2881 29.4416 13.9249 29.2351 14.4255C26.9069 14.0662 24.5906 14.0662 22.3101 14.4255C22.1035 13.9138 21.7979 13.2881 21.5305 12.7999C21.5101 12.764 21.4708 12.7454 21.4313 12.7516C19.2679 13.1357 17.1976 13.8085 15.2657 14.7229C15.249 14.7303 15.2347 14.7427 15.2252 14.7588C11.2982 20.8064 10.2224 26.7054 10.7502 32.5313C10.7526 32.5598 10.7681 32.587 10.7896 32.6044C13.3805 34.5657 15.8902 35.7564 18.3533 36.5457C18.3927 36.5581 18.4345 36.5432 18.4596 36.5097C19.0422 35.6895 19.5616 34.8247 20.0069 33.9152C20.0332 33.862 20.0081 33.7988 19.9544 33.7777C19.1306 33.4556 18.3462 33.0628 17.5916 32.6168C17.5319 32.5808 17.5271 32.4928 17.582 32.4507C17.7408 32.3281 17.8996 32.2004 18.0513 32.0716C18.0787 32.048 18.1169 32.0431 18.1492 32.0579C23.1065 34.391 28.4733 34.391 33.3722 32.0579C33.4044 32.0418 33.4426 32.0468 33.4713 32.0703C33.6229 32.1992 33.7817 32.3281 33.9417 32.4507C33.9966 32.4928 33.993 32.5808 33.9333 32.6168C33.1788 33.0715 32.3943 33.4556 31.5693 33.7765C31.5156 33.7975 31.4917 33.862 31.518 33.9152C31.9728 34.8234 32.4922 35.6883 33.0641 36.5085C33.088 36.5432 33.131 36.5581 33.1704 36.5457C35.6455 35.7564 38.1552 34.5657 40.7461 32.6044C40.7688 32.587 40.7831 32.561 40.7855 32.5325C41.4171 25.7972 39.7276 19.9466 36.3069 14.7601C36.2986 14.7427 36.2843 14.7303 36.2675 14.7229ZM20.7472 28.9839C19.2548 28.9839 18.025 27.5715 18.025 25.8369C18.025 24.1022 19.2309 22.6898 20.7472 22.6898C22.2755 22.6898 23.4933 24.1146 23.4695 25.8369C23.4695 27.5715 22.2635 28.9839 20.7472 28.9839ZM30.8123 28.9839C29.3199 28.9839 28.0901 27.5715 28.0901 25.8369C28.0901 24.1022 29.296 22.6898 30.8123 22.6898C32.3406 22.6898 33.5584 24.1146 33.5346 25.8369C33.5346 27.5715 32.3406 28.9839 30.8123 28.9839Z" fill="#030303"/>
</svg>
