<svg width="51" height="51" viewBox="0 0 51 51" fill="none" xmlns="http://www.w3.org/2000/svg">
<path fill-rule="evenodd" clip-rule="evenodd" d="M25.4911 1.27499C19.4751 1.27812 13.6565 3.40884 9.07553 7.28616C4.49457 11.1635 1.45004 16.5346 0.486317 22.439C-0.477403 28.3435 0.702524 34.3963 3.81514 39.5151C6.92775 44.6339 11.7701 48.485 17.4762 50.3797C18.7351 50.6133 19.2093 49.8331 19.2093 49.1697C19.2093 48.5063 19.1841 46.5828 19.1757 44.4799C12.126 46.0028 10.6364 41.505 10.6364 41.505C9.48659 38.5844 7.82487 37.8167 7.82487 37.8167C5.52533 36.2562 7.99694 36.2854 7.99694 36.2854C10.5441 36.4648 11.8827 38.8848 11.8827 38.8848C14.1402 42.7359 17.8119 41.6219 19.2554 40.971C19.482 39.3396 20.1409 38.2297 20.8668 37.5997C15.2354 36.9655 9.31874 34.8042 9.31874 25.1493C9.28383 22.6454 10.2183 20.2239 11.9288 18.3859C11.6686 17.7517 10.8 15.1899 12.1764 11.7101C12.1764 11.7101 14.3039 11.0342 19.1464 14.2928C23.2999 13.1634 27.6822 13.1634 31.8358 14.2928C36.6741 11.0342 38.7973 11.7101 38.7973 11.7101C40.1779 15.1815 39.3093 17.7434 39.0491 18.3859C40.765 20.2242 41.7015 22.6499 41.6634 25.1577C41.6634 34.8334 35.7341 36.9655 30.0943 37.5872C31.0007 38.3716 31.8106 39.9028 31.8106 42.2561C31.8106 45.6273 31.7812 48.3394 31.7812 49.1697C31.7812 49.8414 32.2386 50.6258 33.5227 50.3797C39.2295 48.4848 44.0723 44.633 47.1849 39.5133C50.2974 34.3936 51.4767 28.3399 50.5119 22.4349C49.5471 16.5299 46.501 11.1588 41.9186 7.28212C37.3361 3.40546 31.5161 1.27614 25.4994 1.27499H25.4911Z" fill="white"/>
<path d="M9.74618 37.4536C9.69163 37.5788 9.49021 37.6164 9.32656 37.5288C9.1629 37.4411 9.04122 37.2784 9.09997 37.1491C9.15872 37.0197 9.35594 36.9863 9.51959 37.074C9.68325 37.1616 9.80912 37.3285 9.74618 37.4536Z" fill="white"/>
<path d="M10.7743 38.5927C10.6874 38.6362 10.588 38.6484 10.4931 38.6271C10.3982 38.6058 10.3137 38.5523 10.254 38.4759C10.0903 38.3006 10.0568 38.0586 10.1826 37.9501C10.3085 37.8417 10.5351 37.8917 10.6988 38.067C10.8625 38.2422 10.9002 38.4842 10.7743 38.5927Z" fill="white"/>
<path d="M11.7731 40.0405C11.6178 40.149 11.3534 40.0405 11.2065 39.8235C11.1659 39.7846 11.1336 39.7379 11.1116 39.6863C11.0895 39.6347 11.0781 39.5792 11.0781 39.5231C11.0781 39.467 11.0895 39.4115 11.1116 39.3599C11.1336 39.3083 11.1659 39.2616 11.2065 39.2227C11.3618 39.1184 11.6262 39.2227 11.7731 39.4355C11.9199 39.6483 11.9241 39.932 11.7731 40.0405Z" fill="white"/>
<path d="M13.1284 41.4424C12.99 41.5968 12.7088 41.5551 12.478 41.3465C12.2472 41.1378 12.1927 40.8541 12.3312 40.7039C12.4696 40.5537 12.7508 40.5954 12.99 40.7999C13.2292 41.0043 13.2753 41.2922 13.1284 41.4424Z" fill="white"/>
<path d="M15.0292 42.2602C14.9663 42.4563 14.6809 42.5439 14.3956 42.4605C14.1102 42.377 13.9214 42.1434 13.9759 41.9431C14.0305 41.7428 14.32 41.651 14.6096 41.7428C14.8991 41.8346 15.0838 42.0557 15.0292 42.2602Z" fill="white"/>
<path d="M17.1023 42.4021C17.1023 42.6065 16.8673 42.7818 16.5652 42.7859C16.2631 42.7901 16.0155 42.6232 16.0155 42.4188C16.0155 42.2143 16.2505 42.0391 16.5526 42.0349C16.8547 42.0307 17.1023 42.1935 17.1023 42.4021Z" fill="white"/>
<path d="M19.0324 42.0808C19.0702 42.2853 18.8604 42.4981 18.5582 42.5481C18.2561 42.5982 17.9917 42.4772 17.954 42.2769C17.9162 42.0767 18.1344 41.8597 18.4281 41.8055C18.7219 41.7512 18.9946 41.8764 19.0324 42.0808Z" fill="white"/>
</svg>
