<svg width="51" height="51" viewBox="0 0 51 51" fill="none" xmlns="http://www.w3.org/2000/svg">
<rect width="51" height="51" rx="25.5" fill="white"/>
<g clip-path="url(#clip0_16_2509)">
<path d="M10.625 14.5938C10.625 13.6365 10.96 12.8468 11.6301 12.2247C12.3001 11.6025 13.1712 11.2914 14.2432 11.2914C15.2962 11.2914 16.1481 11.5977 16.799 12.2103C17.469 12.8421 17.8041 13.6653 17.8041 14.6799C17.8041 15.5988 17.4786 16.3646 16.8277 16.9772C16.1577 17.609 15.277 17.9248 14.1858 17.9248H14.1571C13.1042 17.9248 12.2523 17.609 11.6014 16.9772C10.9504 16.3454 10.625 15.551 10.625 14.5938ZM10.9983 39.7204V20.538H17.3733V39.7204H10.9983ZM20.9054 39.7204H27.2804V29.0093C27.2804 28.3392 27.357 27.8223 27.5101 27.4586C27.7781 26.8077 28.185 26.2573 28.7306 25.8074C29.2762 25.3575 29.9606 25.1326 30.7838 25.1326C32.9279 25.1326 34 26.578 34 29.4688V39.7204H40.375V28.7221C40.375 25.8888 39.705 23.7399 38.3649 22.2753C37.0248 20.8108 35.2539 20.0786 33.0524 20.0786C30.5828 20.0786 28.6588 21.1411 27.2804 23.2661V23.3235H27.2517L27.2804 23.2661V20.538H20.9054C20.9437 21.1506 20.9628 23.0555 20.9628 26.2525C20.9628 29.4496 20.9437 33.9389 20.9054 39.7204Z" fill="#030303"/>
</g>
<defs>
<clipPath id="clip0_16_2509">
<rect x="10.625" y="10.625" width="29.75" height="29.75" fill="white"/>
</clipPath>
</defs>
</svg>
