<svg width="51" height="51" viewBox="0 0 51 51" fill="none" xmlns="http://www.w3.org/2000/svg">
<rect width="51" height="51" rx="25.5" fill="white"/>
<path d="M27.6048 25.5639C27.6048 30.2935 23.8037 34.1275 19.1151 34.1275C14.4264 34.1275 10.625 30.2926 10.625 25.5639C10.625 20.8352 14.4261 17 19.1151 17C23.804 17 27.6048 20.8343 27.6048 25.5639Z" fill="#030303"/>
<path d="M36.9184 25.5639C36.9184 30.0158 35.0179 33.6261 32.6734 33.6261C30.3289 33.6261 28.4283 30.0158 28.4283 25.5639C28.4283 21.112 30.3286 17.5016 32.6731 17.5016C35.0176 17.5016 36.9181 21.1109 36.9181 25.5639" fill="#030303"/>
<path d="M40.728 25.5639C40.728 29.5517 40.0597 32.7864 39.235 32.7864C38.4103 32.7864 37.7423 29.5525 37.7423 25.5639C37.7423 21.5752 38.4106 18.3414 39.235 18.3414C40.0594 18.3414 40.728 21.575 40.728 25.5639Z" fill="#030303"/>
</svg>
