<svg width="51" height="51" viewBox="0 0 51 51" fill="none" xmlns="http://www.w3.org/2000/svg">
<rect width="51" height="51" rx="25.5" fill="white"/>
<path d="M20.8335 38.9513C32.1428 38.9513 38.3265 29.58 38.3265 21.4583C38.3265 21.1905 38.3265 20.9228 38.3138 20.6678C39.5123 19.8008 40.5578 18.717 41.3865 17.4803C40.29 17.9648 39.1043 18.2963 37.8548 18.4493C39.1298 17.6843 40.0988 16.4858 40.5578 15.045C39.372 15.7463 38.0588 16.2563 36.6563 16.5368C35.5343 15.3383 33.9405 14.5988 32.1683 14.5988C28.7768 14.5988 26.0228 17.3528 26.0228 20.7443C26.0228 21.2288 26.0738 21.7005 26.1885 22.1468C21.0758 21.8918 16.5495 19.4438 13.515 15.7208C12.9923 16.626 12.6863 17.6843 12.6863 18.8063C12.6863 20.9355 13.77 22.8225 15.4275 23.919C14.4203 23.8935 13.4768 23.613 12.648 23.154C12.648 23.1795 12.648 23.205 12.648 23.2305C12.648 26.214 14.7645 28.6875 17.5823 29.2613C17.0723 29.4015 16.524 29.478 15.963 29.478C15.5678 29.478 15.1853 29.4398 14.8028 29.3633C15.5805 31.8113 17.85 33.5835 20.5403 33.6345C18.4365 35.2793 15.7845 36.261 12.903 36.261C12.4058 36.261 11.9213 36.2355 11.4368 36.1718C14.127 37.9313 17.3655 38.9513 20.8335 38.9513Z" fill="#030303"/>
</svg>
